<svg height="512pt" viewBox="-2 0 512 512" width="512pt" xmlns="http://www.w3.org/2000/svg"><path d="m72.238281 269.546875c0-100.105469 81.445313-181.546875 181.550781-181.546875 100.105469 0 181.546876 81.441406 181.546876 181.546875zm0 0" fill="#7292df"/><path d="m72.238281 269.546875c2.757813 24.421875-5.5625 44.464844-11.648437 55.40625-3.15625 5.667969-1.289063 12.816406 4.253906 16.183594 11.242188 6.835937 32.78125 17.292969 68.933594 25.628906l15.539062-36.402344-32.515625-49.375zm0 0" fill="#7292df"/><path d="m435.335938 269.546875c-2.757813 24.421875 5.566406 44.464844 11.652343 55.40625 3.152344 5.667969 1.289063 12.816406-4.257812 16.183594-11.242188 6.835937-32.777344 17.292969-68.933594 25.628906l-15.535156-36.402344 32.515625-49.375zm0 0" fill="#7292df"/><g fill="#76e6d5"><path d="m27.078125 130.273438c-10.8125 0-19.578125-8.761719-19.578125-19.578126v-83.617187c0-10.8125 8.765625-19.578125 19.578125-19.578125h83.617187c10.8125 0 19.578126 8.765625 19.578126 19.578125s-8.765626 19.578125-19.578126 19.578125h-64.039062v64.039062c0 10.816407-8.765625 19.578126-19.578125 19.578126zm0 0"/><path d="m480.496094 130.273438c10.816406 0 19.578125-8.761719 19.578125-19.578126v-83.617187c0-10.8125-8.761719-19.578125-19.578125-19.578125h-83.617188c-10.8125 0-19.578125 8.765625-19.578125 19.578125s8.765625 19.578125 19.578125 19.578125h64.042969v64.039062c0 10.816407 8.761719 19.578126 19.574219 19.578126zm0 0"/><path d="m27.078125 381.726562c-10.8125 0-19.578125 8.761719-19.578125 19.578126v83.617187c0 10.8125 8.765625 19.578125 19.578125 19.578125h83.617187c10.8125 0 19.578126-8.765625 19.578126-19.578125s-8.765626-19.578125-19.578126-19.578125h-64.039062v-64.039062c0-10.816407-8.765625-19.578126-19.578125-19.578126zm0 0"/><path d="m480.496094 381.726562c10.816406 0 19.578125 8.761719 19.578125 19.578126v83.617187c0 10.8125-8.761719 19.578125-19.578125 19.578125h-83.617188c-10.8125 0-19.578125-8.765625-19.578125-19.578125s8.765625-19.578125 19.578125-19.578125h64.042969v-64.039062c0-10.816407 8.761719-19.578126 19.574219-19.578126zm0 0"/></g><path d="m442.683594 269.546875c0 19.023437-15.421875 34.441406-34.445313 34.441406-19.019531 0-34.441406-15.417969-34.441406-34.441406 0-19.019531 15.421875-34.441406 34.441406-34.441406 19.023438 0 34.445313 15.421875 34.445313 34.441406zm0 0" fill="#ffcabd"/><path d="m103.148438 235.316406c15.570312-68.828125 77.109374-120.21875 150.640624-120.21875s135.066407 51.382813 150.628907 120.210938zm0 0" fill="#ff889e"/><path d="m404.429688 235.324219h-301.28125s0 0 0-.007813c.523437-1.066406 38.523437-77.769531 150.640624-77.769531 112.015626 0 150.042969 76.566406 150.628907 77.761719.011719.007812.011719.015625.011719.015625zm0 0" fill="#7292df"/><path d="m408.238281 269.546875c0 85.300781-69.148437 154.453125-154.449219 154.453125-85.300781 0-154.453124-69.152344-154.453124-154.453125 0-11.757813 1.320312-23.210937 3.8125-34.222656 0 0 73.261718-81.390625 150.640624-14.550781 77.378907-66.839844 150.640626 14.550781 150.640626 14.550781 2.492187 11.011719 3.808593 22.464843 3.808593 34.222656zm0 0" fill="#ffdcce"/><path d="m129.335938 269.546875c0-10.019531.957031-41.582031 2.78125-57.515625-17.96875 11.078125-28.96875 23.292969-28.96875 23.292969s-.003907.003906-.003907.003906c-1.230469-.140625-2.496093-.222656-3.808593-.222656-19.023438 0-34.441407 15.417969-34.441407 34.441406s15.417969 34.441406 34.441407 34.441406c1.3125 0 2.578124-.082031 3.808593-.222656 15.574219 68.835937 77.101563 120.234375 150.644531 120.234375 5.058594 0 10.0625-.25 15-.726562-78.261718-7.542969-139.453124-73.484376-139.453124-153.726563zm0 0" fill="#ffcabd"/><path d="m188.355469 309.480469h-19.972657c-4.144531 0-7.5-3.359375-7.5-7.5s3.355469-7.5 7.5-7.5h19.972657c4.140625 0 7.5 3.359375 7.5 7.5s-3.359375 7.5-7.5 7.5zm0 0" fill="#ff889e"/><path d="m339.195312 309.480469h-19.972656c-4.144531 0-7.5-3.359375-7.5-7.5s3.355469-7.5 7.5-7.5h19.972656c4.140626 0 7.5 3.359375 7.5 7.5s-3.359374 7.5-7.5 7.5zm0 0" fill="#ff889e"/><path d="m27.078125 137.773438c14.929687 0 27.078125-12.144532 27.078125-27.078126v-56.539062h56.539062c14.933594 0 27.078126-12.148438 27.078126-27.078125s-12.144532-27.078125-27.078126-27.078125h-83.617187c-14.929687 0-27.078125 12.148438-27.078125 27.078125v83.617187c0 14.933594 12.148438 27.078126 27.078125 27.078126zm-12.078125-110.695313c0-6.660156 5.417969-12.078125 12.078125-12.078125h83.617187c6.660157 0 12.078126 5.417969 12.078126 12.078125s-5.417969 12.078125-12.078126 12.078125h-64.039062c-4.140625 0-7.5 3.359375-7.5 7.5v64.039062c0 6.660157-5.417969 12.082032-12.078125 12.082032s-12.078125-5.417969-12.078125-12.082032zm0 0"/><path d="m507.574219 27.078125c0-14.929687-12.144531-27.078125-27.078125-27.078125h-83.617188c-14.929687 0-27.078125 12.148438-27.078125 27.078125s12.148438 27.078125 27.078125 27.078125h56.542969v56.539062c0 14.933594 12.144531 27.082032 27.074219 27.082032 14.933594 0 27.082031-12.148438 27.082031-27.082032v-83.617187zm-15 83.617187c0 6.660157-5.417969 12.082032-12.078125 12.082032s-12.078125-5.417969-12.078125-12.082032v-64.039062c0-4.140625-3.355469-7.5-7.5-7.5h-64.039063c-6.660156 0-12.078125-5.417969-12.078125-12.078125s5.417969-12.078125 12.078125-12.078125h83.617188c6.660156 0 12.078125 5.417969 12.078125 12.078125zm0 0"/><path d="m0 484.921875c0 14.929687 12.148438 27.078125 27.078125 27.078125h83.617187c14.933594 0 27.078126-12.148438 27.078126-27.078125s-12.144532-27.078125-27.078126-27.078125h-56.539062v-56.539062c0-14.933594-12.148438-27.078126-27.078125-27.078126s-27.078125 12.144532-27.078125 27.078126zm15-83.617187c0-6.660157 5.417969-12.078126 12.078125-12.078126s12.078125 5.417969 12.078125 12.078126v64.039062c0 4.140625 3.359375 7.5 7.5 7.5h64.039062c6.660157 0 12.078126 5.417969 12.078126 12.078125s-5.417969 12.078125-12.078126 12.078125h-83.617187c-6.660156 0-12.078125-5.417969-12.078125-12.078125zm0 0"/><path d="m396.878906 512h83.617188c14.933594 0 27.082031-12.148438 27.082031-27.078125v-83.617187c0-14.933594-12.148437-27.078126-27.082031-27.078126-14.929688 0-27.074219 12.144532-27.074219 27.078126v56.539062h-56.542969c-14.929687 0-27.078125 12.148438-27.078125 27.078125s12.148438 27.078125 27.078125 27.078125zm0-39.15625h64.042969c4.140625 0 7.5-3.359375 7.5-7.5v-64.039062c0-6.660157 5.417969-12.078126 12.074219-12.078126 6.660156 0 12.082031 5.417969 12.082031 12.078126v83.617187c0 6.660156-5.417969 12.078125-12.082031 12.078125h-83.617188c-6.660156 0-12.078125-5.417969-12.078125-12.078125s5.417969-12.078125 12.078125-12.078125zm0 0"/><path d="m185.867188 280.425781v-14.664062c0-4.140625-3.355469-7.5-7.5-7.5-4.140626 0-7.5 3.359375-7.5 7.5v14.664062c0 4.144531 3.359374 7.5 7.5 7.5 4.144531 0 7.5-3.359375 7.5-7.5zm0 0"/><path d="m160.882812 301.980469c0 4.140625 3.355469 7.5 7.5 7.5h19.972657c4.140625 0 7.5-3.359375 7.5-7.5s-3.359375-7.5-7.5-7.5h-19.972657c-4.144531 0-7.5 3.359375-7.5 7.5zm0 0"/><path d="m336.707031 280.425781v-14.664062c0-4.140625-3.359375-7.5-7.5-7.5s-7.5 3.359375-7.5 7.5v14.664062c0 4.144531 3.359375 7.5 7.5 7.5s7.5-3.359375 7.5-7.5zm0 0"/><path d="m311.71875 301.980469c0 4.140625 3.359375 7.5 7.5 7.5h19.972656c4.144532 0 7.5-3.359375 7.5-7.5s-3.355468-7.5-7.5-7.5h-19.972656c-4.140625 0-7.5 3.359375-7.5 7.5zm0 0"/><path d="m261.628906 290.246094c-1.890625 2.164062-4.746094 3.40625-7.839844 3.40625s-5.953124-1.242188-7.84375-3.40625c-2.726562-3.117188-7.464843-3.433594-10.582031-.710938-3.121093 2.726563-3.4375 7.464844-.710937 10.585938 4.738281 5.421875 11.714844 8.53125 19.136718 8.53125 7.421876 0 14.394532-3.109375 19.136719-8.53125 2.722657-3.121094 2.40625-7.859375-.710937-10.585938-3.121094-2.722656-7.859375-2.40625-10.585938.710938zm0 0"/><path d="m350.308594 399.601562c10.1875-7.574218 19.46875-16.375 27.628906-26.105468 35.164062-8.347656 56.726562-18.675782 68.6875-25.949219 9.015625-5.476563 12.054688-17.003906 6.917969-26.238281-3.574219-6.425782-8.109375-16.496094-10.15625-28.917969 4.289062-6.578125 6.792969-14.417969 6.792969-22.839844 0-9.871093-3.433594-18.945312-9.15625-26.117187-12.90625-93.042969-93.003907-162.933594-187.234376-162.933594-94.234374 0-174.328124 69.890625-187.238281 162.933594-5.722656 7.171875-9.15625 16.246094-9.15625 26.113281 0 8.421875 2.503907 16.265625 6.792969 22.84375-2.046875 12.417969-6.578125 22.492187-10.15625 28.917969-5.136719 9.234375-2.097656 20.757812 6.917969 26.238281 11.972656 7.277344 33.558593 17.617187 68.769531 25.96875 29.730469 35.421875 74.3125 57.984375 124.070312 57.984375 24.507813 0 48.058594-5.339844 70-15.875 3.734376-1.789062 5.308594-6.273438 3.515626-10.007812-1.792969-3.734376-6.273438-5.304688-10.007813-3.515626-19.898437 9.554688-41.265625 14.398438-63.507813 14.398438-60.308593 0-112.238281-36.519531-134.859374-88.605469-11.835938-27.25-15.074219-58.5-9.132813-87.753906.078125-.390625.160156-.777344.242187-1.167969 6.742188-6.832031 38.84375-37.050781 78.929688-37.050781 14.378906 0 28.402344 3.902344 41.882812 11.628906 6.429688 3.683594 12.410157 8.089844 18.035157 12.898438 2.816406 2.433593 6.988281 2.433593 9.804687 0 5.597656-4.832031 11.613282-9.226563 18.035156-12.898438 13.480469-7.726562 27.503907-11.628906 41.882813-11.628906 40.089844 0 72.183594 30.21875 78.925781 37.050781 2.691406 12.742188 3.679688 25.820313 2.976563 38.824219-1.46875 26.34375-10.15625 52.0625-24.90625 73.933594-9.316407 13.746093-20.914063 25.921875-34.242188 35.832031-3.324219 2.46875-4.015625 7.167969-1.546875 10.492188 2.46875 3.324218 7.167969 4.015624 10.492188 1.546874zm63.476562-156.414062c10.933594 2.304688 19.535156 11.453125 21.121094 22.511719 1.066406 7.417969-1.0625 15.070312-5.804688 20.871093-3.886718 4.753907-9.371093 8.109376-15.386718 9.355469-.039063.007813-.074219.015625-.109375.019531.972656-5.96875 1.617187-12.015624 1.917969-18.132812.570312-11.574219-.054688-23.226562-1.929688-34.660156.0625.011718.128906.023437.191406.035156zm25.050782 91.542969c-8.976563 5.457031-23.914063 12.800781-47.066407 19.601562 2.183594-3.539062 4.242188-7.148437 6.136719-10.839843 5.3125-10.332032 9.4375-21.035157 12.382812-32.054688h.03125c7.226563-.355469 14.378907-2.601562 20.472657-6.5 2.695312 9.898438 6.488281 17.996094 9.640625 23.660156 1.203125 2.164063.5 4.855469-1.597656 6.132813zm-185.046876-239.230469c81.597657 0 151.691407 56.921875 169.625 134.957031-.03125-.011719-.0625-.023437-.09375-.035156-4.164062-1.585937-8.585937-2.550781-13.039062-2.765625-.011719 0-.023438 0-.035156 0-8.789063-32.867188-28.042969-62.546875-54.6875-84.097656-28.675782-23.191406-64.820313-35.960938-101.773438-35.960938-16.398437 0-32.59375 2.445313-48.125 7.273438-3.957031 1.230468-6.167968 5.433594-4.9375 9.390625 1.230469 3.957031 5.4375 6.164062 9.390625 4.933593 14.089844-4.378906 28.785157-6.597656 43.671875-6.597656 33.53125 0 66.324219 11.585938 92.339844 32.625 13.238281 10.707032 24.464844 23.621094 33.222656 38.003906-12.664062-11.007812-27.027344-20.003906-42.375-26.777343-26.105468-11.519531-54.75-16.402344-83.1875-16.402344-25.523437 0-51.191406 3.667969-75.03125 13.039063-18.390625 7.222656-35.785156 17.253906-50.699218 30.265624 13.855468-22.863281 33.886718-41.765624 58.304687-54.402343 3.679687-1.902344 5.117187-6.429688 3.214844-10.105469-1.90625-3.679688-6.429688-5.121094-10.109375-3.214844-40.761719 21.089844-70.414063 58.050782-82.140625 102.027344-.207031.007812-.410157.027344-.613281.039062-4.261719.265626-8.480469 1.1875-12.464844 2.726563-.027344.011719-.058594.023437-.089844.035156 17.9375-78.035156 88.03125-134.957031 169.632812-134.957031zm-159.925781 200.425781c-12.316406-2.492187-21.46875-13.847656-21.46875-26.378906 0-12.355469 9.300781-23.820313 21.394531-26.359375.0625-.011719.128907-.023438.195313-.035156-.195313 1.191406-.375 2.390625-.542969 3.589844-2.304687 16.304687-2.121094 32.957031.542969 49.207031-.039063-.007813-.082031-.015625-.121094-.023438zm21.949219 58.410157c-23.152344-6.800782-38.097656-14.148438-47.074219-19.605469-2.097656-1.277344-2.800781-3.96875-1.597656-6.132813 3.152344-5.664062 6.945313-13.761718 9.640625-23.660156 4.125 2.636719 8.695312 4.507812 13.515625 5.558594 2.28125.5 4.621094.851562 6.957031.941406.027344 0 .050782.003906.074219.003906.070313.257813.152344.511719.222656.773438 4.007813 14.695312 10.25 29.074218 18.261719 42.121094zm134.128906-146.222657c-10.253906-7.519531-21.660156-13.539062-33.859375-17.199219-.054687-.015624-.109375-.03125-.160156-.046874-15.414063-4.484376-31.59375-5.070313-47.308594-1.820313-5.761719 1.191406-11.277343 2.820313-16.503906 4.761719.085937-.054688.171875-.117188.253906-.175782 3.324219-2.257812 10.726563-6.652343 10.972657-6.789062 27.511718-15.453125 59.105468-21.792969 90.453124-21.792969 33.734376 0 67.984376 7.496094 96.796876 25.5625 1.554687.976563 3.09375 1.980469 4.613281 3.011719.085937.058594.171875.121094.261719.179688-5.234376-1.941407-10.757813-3.574219-16.527344-4.765626-9.605469-1.984374-19.539063-2.535156-29.308594-1.625-18.714844 1.75-36.390625 9.367188-51.511719 20.363282-.160156.117187-3.046875 2.257812-4.324219 3.269531-1.277343-1.011719-2.5625-1.984375-3.847656-2.933594zm0 0"/></svg>